<mxfile host="app.diagrams.net" modified="2024-01-30T14:44:36.192Z" agent="Mozilla/5.0 (Macintosh; Intel Mac OS X 10_15_7) AppleWebKit/537.36 (KHTML, like Gecko) Chrome/121.0.0.0 Safari/537.36" etag="LWNVP1rhXAv_ZBs9c1gV" version="23.0.2" type="gitlab">
  <diagram name="Page-1" id="y3Qy6PDATA9GDtZ4tqZU">
    <mxGraphModel dx="1990" dy="1218" grid="1" gridSize="10" guides="1" tooltips="1" connect="1" arrows="1" fold="1" page="1" pageScale="1" pageWidth="850" pageHeight="1100" math="0" shadow="0">
      <root>
        <mxCell id="0" />
        <mxCell id="1" parent="0" />
        <mxCell id="U61UtjvOAD1syzaxOFwD-1" value="" style="whiteSpace=wrap;html=1;" vertex="1" parent="1">
          <mxGeometry x="40" y="40" width="760" height="1030" as="geometry" />
        </mxCell>
        <mxCell id="U61UtjvOAD1syzaxOFwD-4" value="" style="rounded=0;whiteSpace=wrap;html=1;" vertex="1" parent="1">
          <mxGeometry x="40" y="930" width="760" height="140" as="geometry" />
        </mxCell>
        <mxCell id="U61UtjvOAD1syzaxOFwD-5" value="&lt;font style=&quot;font-size: 38px;&quot;&gt;Home&lt;/font&gt;" style="text;html=1;strokeColor=none;fillColor=none;align=center;verticalAlign=middle;whiteSpace=wrap;rounded=0;" vertex="1" parent="1">
          <mxGeometry x="100" y="984" width="60" height="30" as="geometry" />
        </mxCell>
        <mxCell id="U61UtjvOAD1syzaxOFwD-6" value="&lt;font style=&quot;font-size: 38px;&quot;&gt;Create&lt;/font&gt;" style="text;html=1;strokeColor=none;fillColor=none;align=center;verticalAlign=middle;whiteSpace=wrap;rounded=0;" vertex="1" parent="1">
          <mxGeometry x="380" y="984" width="60" height="30" as="geometry" />
        </mxCell>
        <mxCell id="U61UtjvOAD1syzaxOFwD-8" value="&lt;font style=&quot;font-size: 38px;&quot;&gt;Profile&lt;/font&gt;" style="text;html=1;strokeColor=none;fillColor=none;align=center;verticalAlign=middle;whiteSpace=wrap;rounded=0;" vertex="1" parent="1">
          <mxGeometry x="671" y="985" width="60" height="30" as="geometry" />
        </mxCell>
      </root>
    </mxGraphModel>
  </diagram>
</mxfile>
